HIERARCHY
ROOT SpineBase
{
  OFFSET 0.000000 0.000000 0.000000
  CHANNELS 6 Xposition Yposition Zposition Zrotation Xrotation Yrotation
  JOINT SpineMid
  {
    OFFSET 0.000000 32.076484 0.000000
    CHANNELS 3 Zrotation Xrotation Yrotation
    JOINT SpineShoulder
    {
      OFFSET 0.008164 23.810021 -0.710188
      CHANNELS 3 Zrotation Xrotation Yrotation
      JOINT Neck
      {
        OFFSET 0.021499 7.882118 -0.548717
        CHANNELS 3 Zrotation Xrotation Yrotation
        JOINT Head
        {
          OFFSET -4.301996 13.462130 1.836152
          CHANNELS 3 Zrotation Xrotation Yrotation
          End Site
          {
            OFFSET 0 0 0
          }
        }
      }
      JOINT ShoulderLeft
      {
        OFFSET -15.900925 -4.767516 9.172221
        CHANNELS 3 Zrotation Xrotation Yrotation
        JOINT ElbowLeft
        {
          OFFSET -2.880122 -29.306175 0.439092
          CHANNELS 3 Zrotation Xrotation Yrotation
          JOINT WristLeft
          {
            OFFSET 0.897517 -21.394781 -5.408558
            CHANNELS 3 Zrotation Xrotation Yrotation
            JOINT HandLeft
            {
              OFFSET 0.200759 -7.451503 -0.984195
              CHANNELS 3 Zrotation Xrotation Yrotation
              JOINT HandTipLeft
              {
                OFFSET 1.245682 -8.236550 0.051965
                CHANNELS 3 Zrotation Xrotation Yrotation
                End Site
                {
                  OFFSET 0 0 0
                }
              }
              JOINT ThumbLeft
              {
                OFFSET 5.021066 1.518223 -4.186825
                CHANNELS 3 Zrotation Xrotation Yrotation
                End Site
                {
                  OFFSET 0 0 0
                }
              }
            }
          }
        }
      }
      JOINT ShoulderRight
      {
        OFFSET 13.005795 -3.395436 -8.432530
        CHANNELS 3 Zrotation Xrotation Yrotation
        JOINT ElbowRight
        {
          OFFSET 7.878726 -28.268171 -5.274684
          CHANNELS 3 Zrotation Xrotation Yrotation
          JOINT WristRight
          {
            OFFSET 0.865249 -21.070594 -6.269208
            CHANNELS 3 Zrotation Xrotation Yrotation
            JOINT HandRight
            {
              OFFSET -1.066654 -4.027737 0.852106
              CHANNELS 3 Zrotation Xrotation Yrotation
              JOINT HandTipRight
              {
                OFFSET -0.125095 -7.383444 -0.897440
                CHANNELS 3 Zrotation Xrotation Yrotation
                End Site
                {
                  OFFSET 0 0 0
                }
              }
              JOINT ThumbRight
              {
                OFFSET -2.469727 -0.156236 -2.098167
                CHANNELS 3 Zrotation Xrotation Yrotation
                End Site
                {
                  OFFSET 0 0 0
                }
              }
            }
          }
        }
      }
    }
  }
  JOINT HipLeft
  {
    OFFSET -6.519879 0.065500 -0.008382
    CHANNELS 3 Zrotation Xrotation Yrotation
    JOINT KneeLeft
    {
      OFFSET 4.363235 -36.633698 4.329517
      CHANNELS 3 Zrotation Xrotation Yrotation
      JOINT AnkleLeft
      {
        OFFSET 8.520494 -36.625666 7.957413
        CHANNELS 3 Zrotation Xrotation Yrotation
        JOINT FootLeft
        {
          OFFSET -2.601388 -4.022222 -8.099039
          CHANNELS 3 Zrotation Xrotation Yrotation
          End Site
          {
            OFFSET 0 0 0
          }
        }
      }
    }
  }
  JOINT HipRight
  {
    OFFSET 6.846908 1.738140 -7.010340
    CHANNELS 3 Zrotation Xrotation Yrotation
    JOINT KneeRight
    {
      OFFSET 8.554933 -34.946528 -1.753500
      CHANNELS 3 Zrotation Xrotation Yrotation
      JOINT AnkleRight
      {
        OFFSET 4.348148 -36.602258 10.233088
        CHANNELS 3 Zrotation Xrotation Yrotation
        JOINT FootRight
        {
          OFFSET -2.307236 -7.740601 -4.485268
          CHANNELS 3 Zrotation Xrotation Yrotation
          End Site
          {
            OFFSET 0 0 0
          }
        }
      }
    }
  }
}
MOTION
Frames: 9
Frame Time: 0.033333
-16.349860 83.617304 327.761384 -0.000000 0.000000 27.647011 0.000000 0.000000 -27.647011 -0.000000 0.000000 0.000000 -0.000000 0.000000 0.000000 0.000000 0.000000 0.000000 -0.000000 0.000000 0.000000 -0.000000 0.000000 0.000000 -0.000000 0.000000 0.000000 -0.000000 0.000000 0.000000 0.000000 0.000000 0.000000 0.000000 0.000000 0.000000 -0.000000 0.000000 0.000000 -0.000000 0.000000 0.000000 -0.000000 0.000000 0.000000 -0.000000 0.000000 0.000000 0.000000 0.000000 0.000000 0.000000 0.000000 0.000000 0.000000 0.000000 -27.647011 -0.000000 0.000000 0.000000 -0.000000 0.000000 0.000000 0.000000 0.000000 0.000000 0.000000 0.000000 -27.647011 -0.000000 0.000000 0.000000 -0.000000 0.000000 0.000000 0.000000 0.000000 0.000000
-16.591827 83.609416 327.795655 0.107427 0.082437 27.317228 -0.133278 -0.023943 -27.317333 -0.000000 0.000000 0.000000 -0.000000 0.000000 0.000000 0.000000 0.000000 0.000000 -0.000000 0.000000 0.000000 -0.152278 -1.553970 -0.028864 -2.074408 -2.805610 0.178260 1.424847 4.435986 -0.193038 0.000000 0.000000 0.000000 0.000000 0.000000 0.000000 -0.000000 0.000000 0.000000 -0.000000 0.000000 0.000000 0.599394 0.616248 -0.039716 -1.172146 0.197049 0.086936 0.000000 0.000000 0.000000 0.000000 0.000000 0.000000 -0.133278 -0.023943 -27.317333 -0.000000 0.000000 0.000000 2.770016 -7.686705 -0.487241 0.000000 0.000000 0.000000 -0.133278 -0.023943 -27.317333 -0.000000 0.000000 0.000000 1.032759 -0.472739 -0.455585 0.000000 0.000000 0.000000
-16.804777 83.602932 327.813602 0.207902 0.163503 27.004521 -0.259474 -0.051275 -27.004934 -0.000000 0.000000 0.000000 -0.000000 0.000000 0.000000 0.000000 0.000000 0.000000 0.868677 0.386102 -0.027879 -1.202912 -3.321380 -0.027462 -3.902375 -5.062104 0.299825 2.827040 8.045019 -0.440538 0.000000 0.000000 0.000000 0.000000 0.000000 0.000000 -0.000000 0.000000 0.000000 -0.125475 -0.816699 0.002907 1.339075 2.250662 -0.161184 -2.312232 -0.143377 0.205232 0.000000 0.000000 0.000000 0.000000 0.000000 0.000000 -0.259474 -0.051275 -27.004934 -0.000000 0.000000 0.000000 5.343362 -14.721684 -0.707681 0.000000 0.000000 0.000000 -0.259474 -0.051275 -27.004934 -0.000000 0.000000 0.000000 1.904167 -0.830176 -0.849978 0.000000 0.000000 0.000000
-16.988711 83.597849 327.815226 0.301415 0.243192 26.708618 -0.378559 -0.081770 -26.709528 -0.000000 0.000000 0.000000 -0.000000 0.000000 0.000000 0.000000 0.000000 0.000000 1.105007 0.430577 -0.029942 -1.652578 -4.572420 -0.037817 -5.442766 -6.675887 0.391075 4.158379 10.732294 -0.733630 0.000000 0.000000 0.000000 0.000000 0.000000 0.000000 -0.588026 -0.738277 -0.100099 0.427579 -0.382065 0.094901 2.019870 3.568338 -0.337694 -3.428761 -1.023395 0.337627 0.000000 0.000000 0.000000 0.000000 0.000000 0.000000 -0.378559 -0.081770 -26.709528 0.964587 -0.377879 0.124513 6.550755 -20.209171 -0.944473 0.000000 0.000000 0.000000 -0.378559 -0.081770 -26.709528 -0.000000 0.000000 0.000000 2.622576 -1.072796 -1.190109 0.000000 0.000000 0.000000
-17.143630 83.594170 327.800527 0.387958 0.321502 26.429269 -0.490509 -0.115216 -26.430851 -0.000000 0.000000 0.000000 -0.000000 0.000000 0.000000 0.000000 0.000000 0.000000 1.209521 0.376191 -0.022844 -2.001406 -5.549432 -0.043410 -6.673959 -7.608182 0.476890 5.386799 12.458782 -1.055369 0.000000 0.000000 0.000000 0.000000 0.000000 0.000000 -0.690859 -0.910253 -0.130695 0.513263 -0.444532 0.117847 2.729830 5.016093 -0.579065 -4.529203 -2.449978 0.471039 0.000000 0.000000 0.000000 0.000000 0.000000 0.000000 -0.545572 -1.118855 -26.494351 0.811311 0.458116 0.205365 8.027905 -24.472415 -1.058458 0.000000 0.000000 0.000000 -0.490509 -0.115216 -26.430851 -0.000000 0.000000 0.000000 3.194464 -1.200482 -1.481411 0.000000 0.000000 0.000000
-17.269532 83.591893 327.769504 0.467521 0.398428 26.166246 -0.595307 -0.151418 -26.168658 -0.000000 0.000000 0.000000 -0.000000 0.000000 0.000000 0.000000 0.000000 0.000000 1.182278 0.222899 -0.006498 -2.249384 -6.252362 -0.042463 -7.589045 -7.857574 0.575450 6.493549 13.222977 -1.385393 0.000000 0.000000 0.000000 0.000000 0.000000 0.000000 -0.745901 -1.044034 -0.159167 0.569261 -0.475603 0.136832 3.486075 6.606022 -0.890928 -5.621823 -4.433489 0.595457 0.000000 0.000000 0.000000 0.000000 0.000000 0.000000 -0.721021 -1.344291 -26.255440 0.996762 0.594119 0.249827 8.973918 -27.114484 -1.302233 0.000000 0.000000 0.000000 -0.764795 -0.927197 -26.368520 -0.192709 0.770338 0.199562 3.624427 -1.212281 -1.727909 0.000000 0.000000 0.000000
-17.341957 83.584949 327.702785 0.533353 0.470145 25.861086 -0.685015 -0.190399 -25.864413 0.707574 0.440434 0.045351 -0.707943 -0.439840 -0.050788 0.000000 0.000000 0.000000 0.187873 -0.621053 -0.011310 -2.409119 -6.635386 -0.019523 -8.150757 -6.765200 0.750208 7.496947 12.359432 -1.721032 0.000000 0.000000 0.000000 0.000000 0.000000 0.000000 -1.482292 -1.603843 -0.245676 0.608961 -0.447822 0.157096 4.378727 8.395767 -1.289874 -7.552467 -7.185163 0.691422 0.000000 0.000000 0.000000 0.000000 0.000000 0.000000 -0.948201 -1.577285 -25.987052 1.221294 0.809504 0.308386 7.142781 -22.759129 -1.759551 0.000000 0.000000 0.000000 -1.005707 -1.009591 -26.085976 0.345820 1.615975 0.415186 3.391853 -1.780154 -2.058493 0.000000 0.000000 0.000000
-17.383580 83.587914 327.622684 0.615136 0.546078 25.631065 0.106610 -0.065674 -25.611389 0.079748 -0.013939 0.034235 -0.819929 -0.518272 -0.059356 0.000000 0.000000 0.000000 -0.819929 -0.518272 -0.059356 -1.916689 -7.367594 0.052560 -8.228126 -5.211416 0.916388 9.099901 11.363758 -2.032867 0.000000 0.000000 0.000000 0.000000 0.000000 0.000000 -1.489606 -1.745355 -0.290930 0.491927 -0.379917 0.199178 5.823754 10.997029 -1.970376 -8.606690 -11.438620 0.743392 0.000000 0.000000 0.000000 0.000000 0.000000 0.000000 -1.198065 -1.755619 -25.792704 1.408507 0.939632 0.342607 7.160314 -22.489074 -2.533480 0.000000 0.000000 0.000000 -1.275657 -1.044826 -25.868932 0.582206 1.676902 0.443858 3.277848 -1.429764 -2.176437 0.000000 0.000000 0.000000
-17.428714 83.594479 327.547269 0.681616 0.633552 25.421011 0.108383 -0.067144 -25.400030 0.078521 -0.005612 0.036654 -0.887507 -0.612916 -0.064835 0.000000 0.000000 0.000000 -0.791428 -1.620146 0.037468 -2.385317 -6.639445 0.044959 -8.051132 -3.404206 1.063913 9.720943 10.350536 -2.004338 0.000000 0.000000 0.000000 0.000000 0.000000 0.000000 -1.464718 -1.829275 -0.309745 0.450381 -0.359340 0.200182 6.878362 13.639222 -2.758100 -8.932018 -15.037406 0.946365 0.000000 0.000000 0.000000 0.000000 0.000000 0.000000 -1.443688 -1.909397 -25.617599 1.590109 1.077599 0.379135 7.441223 -22.567275 -3.717330 0.000000 0.000000 0.000000 -1.550453 -1.065978 -25.665408 0.934238 1.802806 0.497993 2.841909 -1.202797 -2.180316 0.000000 0.000000 0.000000
